<svg xmlns="http://www.w3.org/2000/svg" xmlns:svg="http://www.w3.org/2000/svg" id="svg2985" width="800" height="600" version="1.1"><defs id="defs2987"><marker id="Arrow2Mstart" orient="auto" refX="0" refY="0" style="overflow:visible"><path id="path3996" d="M 8.7185878,4.0337352 L -2.2072895,0.016013256 L 8.7185884,-4.0017078 C 6.9730900,-1.6296469 6.9831476,1.6157441 8.7185878,4.0337352 z" transform="scale(0.6) translate(0,0)" style="font-size:12;fill-rule:evenodd;stroke-width:.625;stroke-linejoin:round"/></marker><marker id="Arrow2Mend" orient="auto" refX="0" refY="0" style="overflow:visible"><path id="path3999" d="M 8.7185878,4.0337352 L -2.2072895,0.016013256 L 8.7185884,-4.0017078 C 6.9730900,-1.6296469 6.9831476,1.6157441 8.7185878,4.0337352 z" transform="scale(0.6) rotate(180) translate(0,0)" style="font-size:12;fill-rule:evenodd;stroke-width:.625;stroke-linejoin:round"/></marker><marker id="Arrow2Mend-1" orient="auto" refX="0" refY="0" style="overflow:visible"><path id="path3999-7" d="M 8.7185878,4.0337352 -2.2072895,0.01601326 8.7185884,-4.0017078 c -1.7454984,2.3720609 -1.7354408,5.6174519 -6e-7,8.035443 z" transform="scale(-0.6,-0.6)" style="font-size:12px;fill-rule:evenodd;stroke-width:.625;stroke-linejoin:round"/></marker></defs><metadata id="metadata2990"/><g id="layer1"><g id="g3801" transform="translate(70,-40)"><rect id="rect2997" width="100" height="50" x="50" y="50" rx="10" ry="10" style="fill:none;stroke:#000;stroke-width:3;stroke-miterlimit:4;stroke-opacity:1;stroke-dasharray:none"/><text id="text3767" x="100" y="80" xml:space="preserve" style="font-size:20px;font-style:normal;font-variant:normal;font-weight:900;font-stretch:normal;text-align:center;line-height:120.00000477%;letter-spacing:0;word-spacing:0;writing-mode:lr-tb;text-anchor:middle;fill:#000;fill-opacity:1;stroke:none;font-family:Arial Black;-inkscape-font-specification:'Arial Black, Heavy'"><tspan id="tspan3769" x="100" y="80">Entry 0</tspan></text></g><g id="g3806" transform="translate(-80,10)"><rect style="fill:none;stroke:#000;stroke-width:3;stroke-miterlimit:4;stroke-opacity:1;stroke-dasharray:none" id="rect3771" width="100" height="50" x="100" y="150" rx="10" ry="10"/><text style="font-size:20px;font-style:normal;font-variant:normal;font-weight:900;font-stretch:normal;text-align:center;line-height:120.00000477%;letter-spacing:0;word-spacing:0;writing-mode:lr-tb;text-anchor:middle;fill:#000;fill-opacity:1;stroke:none;font-family:Arial Black;-inkscape-font-specification:'Arial Black, Heavy'" id="text3773" x="150" y="180" xml:space="preserve"><tspan id="tspan3775" x="150" y="180">Chunk 1</tspan></text></g><g id="g3811" transform="translate(180,-80)"><rect id="rect3777" width="100" height="50" x="40" y="240" rx="10" ry="10" style="fill:none;stroke:#000;stroke-width:3;stroke-miterlimit:4;stroke-opacity:1;stroke-dasharray:none"/><text id="text3779" x="90" y="270" xml:space="preserve" style="font-size:20px;font-style:normal;font-variant:normal;font-weight:900;font-stretch:normal;text-align:center;line-height:120.00000477%;letter-spacing:0;word-spacing:0;writing-mode:lr-tb;text-anchor:middle;fill:#000;fill-opacity:1;stroke:none;font-family:Arial Black;-inkscape-font-specification:'Arial Black, Heavy'"><tspan id="tspan3781" x="90" y="270">Chunk 2</tspan></text></g><g id="g3816" transform="translate(-80,50)"><rect style="fill:none;stroke:#000;stroke-width:3;stroke-miterlimit:4;stroke-opacity:1;stroke-dasharray:none" id="rect3783" width="100" height="50" x="250" y="260" rx="10" ry="10"/><text style="font-size:20px;font-style:normal;font-variant:normal;font-weight:900;font-stretch:normal;text-align:center;line-height:120.00000477%;letter-spacing:0;word-spacing:0;writing-mode:lr-tb;text-anchor:middle;fill:#000;fill-opacity:1;stroke:none;font-family:Arial Black;-inkscape-font-specification:'Arial Black, Heavy'" id="text3785" x="300" y="290" xml:space="preserve"><tspan id="tspan3787" x="300" y="290">Chunk 3</tspan></text></g><g id="g3821" transform="translate(-110,-10)"><rect id="rect3795" width="100" height="50" x="130" y="320" rx="10" ry="10" style="fill:none;stroke:#000;stroke-width:3;stroke-miterlimit:4;stroke-opacity:1;stroke-dasharray:none"/><text id="text3797" x="180" y="350" xml:space="preserve" style="font-size:20px;font-style:normal;font-variant:normal;font-weight:900;font-stretch:normal;text-align:center;line-height:120.00000477%;letter-spacing:0;word-spacing:0;writing-mode:lr-tb;text-anchor:middle;fill:#000;fill-opacity:1;stroke:none;font-family:Arial Black;-inkscape-font-specification:'Arial Black, Heavy'"><tspan id="tspan3799" x="180" y="350">Chunk 4</tspan></text></g><g id="g3832" transform="translate(-30,-40)"><path id="path3826" d="m 100,75 a 25,25 0 1 1 -50,0 25,25 0 1 1 50,0 z" style="fill:none;stroke:#000;stroke-width:3;stroke-linecap:round;stroke-linejoin:round;stroke-miterlimit:4;stroke-opacity:1;stroke-dasharray:none;stroke-dashoffset:0"/><text id="text3828" x="75" y="86" xml:space="preserve" style="font-size:32px;font-style:normal;font-variant:normal;font-weight:400;font-stretch:normal;text-align:center;line-height:120.00000477%;letter-spacing:0;word-spacing:0;writing-mode:lr-tb;text-anchor:middle;fill:#000;fill-opacity:1;stroke:none;font-family:Arial;-inkscape-font-specification:Arial"><tspan id="tspan3830" x="75" y="86">0</tspan></text></g><g id="g3837" transform="translate(40,35)"><path style="fill:none;stroke:#000;stroke-width:3;stroke-linecap:round;stroke-linejoin:round;stroke-miterlimit:4;stroke-opacity:1;stroke-dasharray:none;stroke-dashoffset:0" id="path3839" d="m 100,75 a 25,25 0 1 1 -50,0 25,25 0 1 1 50,0 z"/><text style="font-size:32px;font-style:normal;font-variant:normal;font-weight:400;font-stretch:normal;text-align:center;line-height:120.00000477%;letter-spacing:0;word-spacing:0;writing-mode:lr-tb;text-anchor:middle;fill:#000;fill-opacity:1;stroke:none;font-family:Arial;-inkscape-font-specification:Arial" id="text3841" x="75" y="86" xml:space="preserve"><tspan id="tspan3843" x="75" y="86">2</tspan></text></g><g id="g3845" transform="translate(180,35)"><path id="path3847" d="m 100,75 a 25,25 0 1 1 -50,0 25,25 0 1 1 50,0 z" style="fill:none;stroke:#000;stroke-width:3;stroke-linecap:round;stroke-linejoin:round;stroke-miterlimit:4;stroke-opacity:1;stroke-dasharray:none;stroke-dashoffset:0"/><text id="text3849" x="75" y="86" xml:space="preserve" style="font-size:32px;font-style:normal;font-variant:normal;font-weight:400;font-stretch:normal;text-align:center;line-height:120.00000477%;letter-spacing:0;word-spacing:0;writing-mode:lr-tb;text-anchor:middle;fill:#000;fill-opacity:1;stroke:none;font-family:Arial;-inkscape-font-specification:Arial"><tspan id="tspan3851" x="75" y="86">1</tspan></text></g><g id="g3853" transform="translate(110,35)"><path style="fill:none;stroke:#000;stroke-width:3;stroke-linecap:round;stroke-linejoin:round;stroke-miterlimit:4;stroke-opacity:1;stroke-dasharray:none;stroke-dashoffset:0" id="path3855" d="m 100,75 a 25,25 0 1 1 -50,0 25,25 0 1 1 50,0 z"/><text style="font-size:32px;font-style:normal;font-variant:normal;font-weight:400;font-stretch:normal;text-align:center;line-height:120.00000477%;letter-spacing:0;word-spacing:0;writing-mode:lr-tb;text-anchor:middle;fill:#000;fill-opacity:1;stroke:none;font-family:Arial;-inkscape-font-specification:Arial" id="text3857" x="75" y="86" xml:space="preserve"><tspan id="tspan3859" x="75" y="86">3</tspan></text></g><g id="g3861" transform="translate(-30,185)"><path id="path3863" d="m 100,75 a 25,25 0 1 1 -50,0 25,25 0 1 1 50,0 z" style="fill:none;stroke:#000;stroke-width:3;stroke-linecap:round;stroke-linejoin:round;stroke-miterlimit:4;stroke-opacity:1;stroke-dasharray:none;stroke-dashoffset:0"/><text id="text3865" x="75" y="86" xml:space="preserve" style="font-size:32px;font-style:normal;font-variant:normal;font-weight:400;font-stretch:normal;text-align:center;line-height:120.00000477%;letter-spacing:0;word-spacing:0;writing-mode:lr-tb;text-anchor:middle;fill:#000;fill-opacity:1;stroke:none;font-family:Arial;-inkscape-font-specification:Arial"><tspan id="tspan3867" x="75" y="86">4</tspan></text></g><g id="g3869" transform="translate(40,185)"><path id="path3871" d="m 100,75 a 25,25 0 1 1 -50,0 25,25 0 1 1 50,0 z" style="fill:none;stroke:#000;stroke-width:3;stroke-linecap:round;stroke-linejoin:round;stroke-miterlimit:4;stroke-opacity:1;stroke-dasharray:none;stroke-dashoffset:0"/><text id="text3873" x="75" y="86" xml:space="preserve" style="font-size:32px;font-style:normal;font-variant:normal;font-weight:400;font-stretch:normal;text-align:center;line-height:120.00000477%;letter-spacing:0;word-spacing:0;writing-mode:lr-tb;text-anchor:middle;fill:#000;fill-opacity:1;stroke:none;font-family:Arial;-inkscape-font-specification:Arial"><tspan id="tspan3875" x="75" y="86">7</tspan></text></g><g id="g3877" transform="translate(110,185)"><path style="fill:none;stroke:#000;stroke-width:3;stroke-linecap:round;stroke-linejoin:round;stroke-miterlimit:4;stroke-opacity:1;stroke-dasharray:none;stroke-dashoffset:0" id="path3879" d="m 100,75 a 25,25 0 1 1 -50,0 25,25 0 1 1 50,0 z"/><text style="font-size:32px;font-style:normal;font-variant:normal;font-weight:400;font-stretch:normal;text-align:center;line-height:120.00000477%;letter-spacing:0;word-spacing:0;writing-mode:lr-tb;text-anchor:middle;fill:#000;fill-opacity:1;stroke:none;font-family:Arial;-inkscape-font-specification:Arial" id="text3881" x="75" y="86" xml:space="preserve"><tspan id="tspan3883" x="75" y="86">6</tspan></text></g><g id="g3885" transform="translate(180,185)"><path style="fill:none;stroke:#000;stroke-width:3;stroke-linecap:round;stroke-linejoin:round;stroke-miterlimit:4;stroke-opacity:1;stroke-dasharray:none;stroke-dashoffset:0" id="path3887" d="m 100,75 a 25,25 0 1 1 -50,0 25,25 0 1 1 50,0 z"/><text style="font-size:32px;font-style:normal;font-variant:normal;font-weight:400;font-stretch:normal;text-align:center;line-height:120.00000477%;letter-spacing:0;word-spacing:0;writing-mode:lr-tb;text-anchor:middle;fill:#000;fill-opacity:1;stroke:none;font-family:Arial;-inkscape-font-specification:Arial" id="text3889" x="75" y="86" xml:space="preserve"><tspan id="tspan3891" x="75" y="86">5</tspan></text></g><g id="g3909" transform="translate(250,185)"><path id="path3911" d="m 100,75 a 25,25 0 1 1 -50,0 25,25 0 1 1 50,0 z" style="fill:none;stroke:#000;stroke-width:3;stroke-linecap:round;stroke-linejoin:round;stroke-miterlimit:4;stroke-opacity:1;stroke-dasharray:none;stroke-dashoffset:0"/><text id="text3913" x="75" y="86" xml:space="preserve" style="font-size:32px;font-style:normal;font-variant:normal;font-weight:400;font-stretch:normal;text-align:center;line-height:120.00000477%;letter-spacing:0;word-spacing:0;writing-mode:lr-tb;text-anchor:middle;fill:#000;fill-opacity:1;stroke:none;font-family:Arial;-inkscape-font-specification:Arial"><tspan id="tspan3915" x="75" y="86">8</tspan></text></g><g id="g3917" transform="translate(-30,335)"><path style="fill:none;stroke:#000;stroke-width:3;stroke-linecap:round;stroke-linejoin:round;stroke-miterlimit:4;stroke-opacity:1;stroke-dasharray:none;stroke-dashoffset:0" id="path3919" d="m 100,75 a 25,25 0 1 1 -50,0 25,25 0 1 1 50,0 z"/><text style="font-size:32px;font-style:normal;font-variant:normal;font-weight:400;font-stretch:normal;text-align:center;line-height:120.00000477%;letter-spacing:0;word-spacing:0;writing-mode:lr-tb;text-anchor:middle;fill:#000;fill-opacity:1;stroke:none;font-family:Arial;-inkscape-font-specification:Arial" id="text3921" x="75" y="86" xml:space="preserve"><tspan id="tspan3923" x="75" y="86">10</tspan></text></g><g id="g3925" transform="translate(40,335)"><path style="fill:none;stroke:#000;stroke-width:3;stroke-linecap:round;stroke-linejoin:round;stroke-miterlimit:4;stroke-opacity:1;stroke-dasharray:none;stroke-dashoffset:0" id="path3927" d="m 100,75 a 25,25 0 1 1 -50,0 25,25 0 1 1 50,0 z"/><text style="font-size:32px;font-style:normal;font-variant:normal;font-weight:400;font-stretch:normal;text-align:center;line-height:120.00000477%;letter-spacing:0;word-spacing:0;writing-mode:lr-tb;text-anchor:middle;fill:#000;fill-opacity:1;stroke:none;font-family:Arial;-inkscape-font-specification:Arial" id="text3929" x="75" y="86" xml:space="preserve"><tspan id="tspan3931" x="75" y="86">11</tspan></text></g><g id="g3933" transform="translate(110,335)"><path id="path3935" d="m 100,75 a 25,25 0 1 1 -50,0 25,25 0 1 1 50,0 z" style="fill:none;stroke:#000;stroke-width:3;stroke-linecap:round;stroke-linejoin:round;stroke-miterlimit:4;stroke-opacity:1;stroke-dasharray:none;stroke-dashoffset:0"/><text id="text3937" x="75" y="86" xml:space="preserve" style="font-size:32px;font-style:normal;font-variant:normal;font-weight:400;font-stretch:normal;text-align:center;line-height:120.00000477%;letter-spacing:0;word-spacing:0;writing-mode:lr-tb;text-anchor:middle;fill:#000;fill-opacity:1;stroke:none;font-family:Arial;-inkscape-font-specification:Arial"><tspan id="tspan3939" x="75" y="86">9</tspan></text></g><path style="fill:none;stroke:#000;stroke-width:2;stroke-linecap:round;stroke-linejoin:round;stroke-miterlimit:4;stroke-opacity:1;stroke-dasharray:6,6;stroke-dashoffset:0" id="path3941" d="M 120,35 70,35"/><path id="path3943" d="M 136,60 115,85" style="fill:none;stroke:#000;stroke-width:2;stroke-linecap:round;stroke-linejoin:round;stroke-miterlimit:4;stroke-opacity:1;stroke-dasharray:6,6;stroke-dashoffset:0"/><path style="fill:none;stroke:#000;stroke-width:2;stroke-linecap:round;stroke-linejoin:round;stroke-miterlimit:4;stroke-opacity:1;stroke-dasharray:6,6;stroke-dashoffset:0" id="path3945" d="m 187,60 -2,25"/><path id="path3947" d="m 209,60 46,25" style="fill:none;stroke:#000;stroke-width:2;stroke-linecap:round;stroke-linejoin:round;stroke-miterlimit:4;stroke-opacity:1;stroke-dasharray:6,6;stroke-dashoffset:0"/><path style="fill:none;stroke:#000;stroke-width:2;stroke-linecap:round;stroke-linejoin:round;stroke-miterlimit:4;stroke-opacity:1;stroke-dasharray:6,6;stroke-dashoffset:0" id="path3949" d="m 45,210 0,25"/><path id="path3951" d="m 110,210 5,25" style="fill:none;stroke:#000;stroke-width:2;stroke-linecap:round;stroke-linejoin:round;stroke-miterlimit:4;stroke-opacity:1;stroke-dasharray:6,6;stroke-dashoffset:0"/><path style="fill:none;stroke:#000;stroke-width:2;stroke-linecap:round;stroke-linejoin:round;stroke-miterlimit:4;stroke-opacity:1;stroke-dasharray:6,6;stroke-dashoffset:0" id="path3953" d="m 119,206 58,30"/><path id="path3955" d="m 222,206 -27,30" style="fill:none;stroke:#000;stroke-width:2;stroke-linecap:round;stroke-linejoin:round;stroke-miterlimit:4;stroke-opacity:1;stroke-dasharray:6,6;stroke-dashoffset:0"/><path style="fill:none;stroke:#000;stroke-width:2;stroke-linecap:round;stroke-linejoin:round;stroke-miterlimit:4;stroke-opacity:1;stroke-dasharray:6,6;stroke-dashoffset:0" id="path3957" d="m 255,210 0,25"/><path id="path3959" d="m 309,210 16,25" style="fill:none;stroke:#000;stroke-width:2;stroke-linecap:round;stroke-linejoin:round;stroke-miterlimit:4;stroke-opacity:1;stroke-dasharray:6,6;stroke-dashoffset:0"/><path style="fill:none;stroke:#000;stroke-width:2;stroke-linecap:round;stroke-linejoin:round;stroke-miterlimit:4;stroke-opacity:1;stroke-dasharray:6,6;stroke-dashoffset:0" id="path3961" d="m 45,360 0,25"/><path id="path3963" d="m 109,360 6,25" style="fill:none;stroke:#000;stroke-width:2;stroke-linecap:round;stroke-linejoin:round;stroke-miterlimit:4;stroke-opacity:1;stroke-dasharray:6,6;stroke-dashoffset:0"/><path style="fill:none;stroke:#000;stroke-width:2;stroke-linecap:round;stroke-linejoin:round;stroke-miterlimit:4;stroke-opacity:1;stroke-dasharray:6,6;stroke-dashoffset:0" id="path3965" d="m 185,360 0,25"/><path style="fill:none;stroke:#000;stroke-width:2;stroke-linecap:butt;stroke-linejoin:miter;stroke-miterlimit:4;stroke-opacity:1;stroke-dasharray:none;marker-end:url(#Arrow2Mend)" id="path3967" d="m 45,60 0,97"/><path id="path4413" d="m 200,130 22,31" style="fill:none;stroke:#000;stroke-width:2;stroke-linecap:butt;stroke-linejoin:miter;stroke-miterlimit:4;stroke-opacity:1;stroke-dasharray:none;marker-end:url(#Arrow2Mend)"/><path style="fill:none;stroke:#000;stroke-width:2;stroke-linecap:butt;stroke-linejoin:miter;stroke-miterlimit:4;stroke-opacity:1;stroke-dasharray:none;marker-end:url(#Arrow2Mend)" id="path4415" d="m 185,285 0,21"/><path id="path4417" d="m 307,278 -36,34" style="fill:none;stroke:#000;stroke-width:2;stroke-linecap:butt;stroke-linejoin:miter;stroke-miterlimit:4;stroke-opacity:1;stroke-dasharray:none;marker-end:url(#Arrow2Mend)"/><path style="fill:none;stroke:#000;stroke-width:2;stroke-linecap:butt;stroke-linejoin:miter;stroke-miterlimit:4;stroke-opacity:1;stroke-dasharray:none;marker-end:url(#Arrow2Mend)" id="path4419" d="m 45,285 0,22"/><path style="fill:none;stroke:#000;stroke-width:1px;stroke-linecap:butt;stroke-linejoin:miter;stroke-opacity:1;marker-end:url(#Arrow2Mend)" id="path4421" d="M 63,53 98,89"/><path id="path4605" d="m 140,110 17,0" style="fill:none;stroke:#000;stroke-width:1px;stroke-linecap:butt;stroke-linejoin:miter;stroke-opacity:1;marker-end:url(#Arrow2Mend)"/><path style="fill:none;stroke:#000;stroke-width:1px;stroke-linecap:butt;stroke-linejoin:miter;stroke-opacity:1;marker-end:url(#Arrow2Mend)" id="path4607" d="m 135,126 c 35.7174,27.84064 67.98009,21.13424 99,2"/><path style="fill:none;stroke:#000;stroke-width:1px;stroke-linecap:butt;stroke-linejoin:miter;stroke-opacity:1;marker-end:url(#Arrow2Mend)" id="path4609" d="m 210,110 17,0"/><path id="path4611" d="M 34,58 C 0,190 10.704769,220.55965 26,239" style="fill:none;stroke:#000;stroke-width:1px;stroke-linecap:butt;stroke-linejoin:miter;stroke-opacity:1;marker-end:url(#Arrow2Mend)"/><path id="path4605-4" d="m 70,260 17,0" style="fill:none;stroke:#000;stroke-width:1px;stroke-linecap:butt;stroke-linejoin:miter;stroke-opacity:1;marker-end:url(#Arrow2Mend)"/><path style="fill:none;stroke:#000;stroke-width:1px;stroke-linecap:butt;stroke-linejoin:miter;stroke-opacity:1;marker-end:url(#Arrow2Mend)" id="path4637" d="m 140,260 17,0"/><path id="path4639" d="m 130,240 c 16.02047,-39.48206 59.72218,-75.1894 110,-110" style="fill:none;stroke:#000;stroke-width:1px;stroke-linecap:butt;stroke-linejoin:miter;stroke-opacity:1;marker-end:url(#Arrow2Mend)"/><path id="path4641" d="m 230,260 -17,0" style="fill:none;stroke:#000;stroke-width:1px;stroke-linecap:butt;stroke-linejoin:miter;stroke-opacity:1;marker-end:url(#Arrow2Mend)"/><path style="fill:none;stroke:#000;stroke-width:1px;stroke-linecap:butt;stroke-linejoin:miter;stroke-opacity:1;marker-end:url(#Arrow2Mend)" id="path4643" d="m 280,260 17,0"/><path style="fill:none;stroke:#000;stroke-width:1px;stroke-linecap:butt;stroke-linejoin:miter;stroke-opacity:1;marker-end:url(#Arrow2Mend)" id="path4645" d="m 185,135 c 2.73581,54.06364 24.04613,85.4251 55,105"/><path style="fill:none;stroke:#000;stroke-width:1px;stroke-linecap:butt;stroke-linejoin:miter;stroke-opacity:1;marker-start:url(#Arrow2Mstart);marker-end:url(#Arrow2Mend)" id="path4647" d="m 209,274 c 29.71146,22.01607 55.20143,25.48206 92,0"/><path style="fill:none;stroke:#000;stroke-width:1px;stroke-linecap:butt;stroke-linejoin:miter;stroke-opacity:1;marker-end:url(#Arrow2Mend)" id="path4837" d="m 170,280 c -23.82723,36 -19.69632,72 -2,108"/><path id="path4839" d="M 325,285 C 303.57819,351.66013 263.80926,385.91384 211,400" style="fill:none;stroke:#000;stroke-width:1px;stroke-linecap:butt;stroke-linejoin:miter;stroke-opacity:1;marker-end:url(#Arrow2Mend)"/><path id="path4841" d="m 127,387 c 10,-30 3,-77 -5,-100" style="fill:none;stroke:#000;stroke-width:1px;stroke-linecap:butt;stroke-linejoin:miter;stroke-opacity:1;marker-end:url(#Arrow2Mend)"/><path style="fill:none;stroke:#000;stroke-width:1px;stroke-linecap:butt;stroke-linejoin:miter;stroke-opacity:1;marker-end:url(#Arrow2Mend)" id="path4843" d="M 30,280 C -7.614024,325.76218 13.429677,355.82072 28,388"/><path style="fill:none;stroke:#000;stroke-width:1px;stroke-linecap:butt;stroke-linejoin:miter;stroke-opacity:1;marker-end:url(#Arrow2Mend)" id="path4845" d="m 70,410 17,0"/><path style="fill:none;stroke:#000;stroke-width:1px;stroke-linecap:butt;stroke-linejoin:miter;stroke-opacity:1;marker-end:url(#Arrow2Mend)" id="path4847" d="m 133,392 c 10,-30 7,-102 31,-114"/><g id="g4851" transform="translate(500,-40)"><rect style="fill:none;stroke:#000;stroke-width:3;stroke-miterlimit:4;stroke-opacity:1;stroke-dasharray:none" id="rect4853" width="100" height="50" x="50" y="50" rx="10" ry="10"/><text style="font-size:20px;font-style:normal;font-variant:normal;font-weight:900;font-stretch:normal;text-align:center;line-height:120.00000477%;letter-spacing:0;word-spacing:0;writing-mode:lr-tb;text-anchor:middle;fill:#000;fill-opacity:1;stroke:none;font-family:Arial Black;-inkscape-font-specification:'Arial Black, Heavy'" id="text4855" x="100" y="80" xml:space="preserve"><tspan id="tspan4857" x="100" y="80">Entry 0</tspan></text></g><g id="g4859" transform="translate(350,10)"><rect id="rect4861" width="100" height="50" x="100" y="150" rx="10" ry="10" style="fill:none;stroke:#000;stroke-width:3;stroke-miterlimit:4;stroke-opacity:1;stroke-dasharray:none"/><text id="text4863" x="150" y="180" xml:space="preserve" style="font-size:20px;font-style:normal;font-variant:normal;font-weight:900;font-stretch:normal;text-align:center;line-height:120.00000477%;letter-spacing:0;word-spacing:0;writing-mode:lr-tb;text-anchor:middle;fill:#000;fill-opacity:1;stroke:none;font-family:Arial Black;-inkscape-font-specification:'Arial Black, Heavy'"><tspan id="tspan4865" x="150" y="180">Chunk 1</tspan></text></g><g id="g4867" transform="translate(610,-80)"><rect style="fill:none;stroke:#000;stroke-width:3;stroke-miterlimit:4;stroke-opacity:1;stroke-dasharray:none" id="rect4869" width="100" height="50" x="40" y="240" rx="10" ry="10"/><text style="font-size:20px;font-style:normal;font-variant:normal;font-weight:900;font-stretch:normal;text-align:center;line-height:120.00000477%;letter-spacing:0;word-spacing:0;writing-mode:lr-tb;text-anchor:middle;fill:#000;fill-opacity:1;stroke:none;font-family:Arial Black;-inkscape-font-specification:'Arial Black, Heavy'" id="text4871" x="90" y="270" xml:space="preserve"><tspan id="tspan4873" x="90" y="270">Chunk 2</tspan></text></g><g id="g4875" transform="translate(350,50)"><rect id="rect4877" width="100" height="50" x="250" y="260" rx="10" ry="10" style="fill:none;stroke:#000;stroke-width:3;stroke-miterlimit:4;stroke-opacity:1;stroke-dasharray:none"/><text id="text4879" x="300" y="290" xml:space="preserve" style="font-size:20px;font-style:normal;font-variant:normal;font-weight:900;font-stretch:normal;text-align:center;line-height:120.00000477%;letter-spacing:0;word-spacing:0;writing-mode:lr-tb;text-anchor:middle;fill:#000;fill-opacity:1;stroke:none;font-family:Arial Black;-inkscape-font-specification:'Arial Black, Heavy'"><tspan id="tspan4881" x="300" y="290">Chunk 3</tspan></text></g><g id="g4891" transform="translate(400,-40)"><path style="fill:none;stroke:#000;stroke-width:3;stroke-linecap:round;stroke-linejoin:round;stroke-miterlimit:4;stroke-opacity:1;stroke-dasharray:none;stroke-dashoffset:0" id="path4893" d="m 100,75 a 25,25 0 1 1 -50,0 25,25 0 1 1 50,0 z"/><text style="font-size:32px;font-style:normal;font-variant:normal;font-weight:400;font-stretch:normal;text-align:center;line-height:120.00000477%;letter-spacing:0;word-spacing:0;writing-mode:lr-tb;text-anchor:middle;fill:#000;fill-opacity:1;stroke:none;font-family:Arial;-inkscape-font-specification:Arial" id="text4895" x="75" y="86" xml:space="preserve"><tspan id="tspan4897" x="75" y="86">0</tspan></text></g><g id="g4899" transform="translate(470,35)"><path id="path4901" d="m 100,75 a 25,25 0 1 1 -50,0 25,25 0 1 1 50,0 z" style="fill:none;stroke:#000;stroke-width:3;stroke-linecap:round;stroke-linejoin:round;stroke-miterlimit:4;stroke-opacity:1;stroke-dasharray:none;stroke-dashoffset:0"/><text id="text4903" x="75" y="86" xml:space="preserve" style="font-size:32px;font-style:normal;font-variant:normal;font-weight:400;font-stretch:normal;text-align:center;line-height:120.00000477%;letter-spacing:0;word-spacing:0;writing-mode:lr-tb;text-anchor:middle;fill:#000;fill-opacity:1;stroke:none;font-family:Arial;-inkscape-font-specification:Arial"><tspan id="tspan4905" x="75" y="86">2</tspan></text></g><g id="g4907" transform="translate(610,35)"><path style="fill:none;stroke:#000;stroke-width:3;stroke-linecap:round;stroke-linejoin:round;stroke-miterlimit:4;stroke-opacity:1;stroke-dasharray:none;stroke-dashoffset:0" id="path4909" d="m 100,75 a 25,25 0 1 1 -50,0 25,25 0 1 1 50,0 z"/><text style="font-size:32px;font-style:normal;font-variant:normal;font-weight:400;font-stretch:normal;text-align:center;line-height:120.00000477%;letter-spacing:0;word-spacing:0;writing-mode:lr-tb;text-anchor:middle;fill:#000;fill-opacity:1;stroke:none;font-family:Arial;-inkscape-font-specification:Arial" id="text4911" x="75" y="86" xml:space="preserve"><tspan id="tspan4913" x="75" y="86">1</tspan></text></g><g id="g4915" transform="translate(540,35)"><path id="path4917" d="m 100,75 a 25,25 0 1 1 -50,0 25,25 0 1 1 50,0 z" style="fill:none;stroke:#000;stroke-width:3;stroke-linecap:round;stroke-linejoin:round;stroke-miterlimit:4;stroke-opacity:1;stroke-dasharray:none;stroke-dashoffset:0"/><text id="text4919" x="75" y="86" xml:space="preserve" style="font-size:32px;font-style:normal;font-variant:normal;font-weight:400;font-stretch:normal;text-align:center;line-height:120.00000477%;letter-spacing:0;word-spacing:0;writing-mode:lr-tb;text-anchor:middle;fill:#000;fill-opacity:1;stroke:none;font-family:Arial;-inkscape-font-specification:Arial"><tspan id="tspan4921" x="75" y="86">3</tspan></text></g><g id="g4923" transform="translate(400,185)"><path style="fill:none;stroke:#000;stroke-width:3;stroke-linecap:round;stroke-linejoin:round;stroke-miterlimit:4;stroke-opacity:1;stroke-dasharray:none;stroke-dashoffset:0" id="path4925" d="m 100,75 a 25,25 0 1 1 -50,0 25,25 0 1 1 50,0 z"/><text style="font-size:32px;font-style:normal;font-variant:normal;font-weight:400;font-stretch:normal;text-align:center;line-height:120.00000477%;letter-spacing:0;word-spacing:0;writing-mode:lr-tb;text-anchor:middle;fill:#000;fill-opacity:1;stroke:none;font-family:Arial;-inkscape-font-specification:Arial" id="text4927" x="75" y="86" xml:space="preserve"><tspan id="tspan4929" x="75" y="86">4*</tspan></text></g><g id="g4931" transform="translate(470,185)"><path style="fill:none;stroke:#000;stroke-width:3;stroke-linecap:round;stroke-linejoin:round;stroke-miterlimit:4;stroke-opacity:1;stroke-dasharray:none;stroke-dashoffset:0" id="path4933" d="m 100,75 a 25,25 0 1 1 -50,0 25,25 0 1 1 50,0 z"/><text style="font-size:32px;font-style:normal;font-variant:normal;font-weight:400;font-stretch:normal;text-align:center;line-height:120.00000477%;letter-spacing:0;word-spacing:0;writing-mode:lr-tb;text-anchor:middle;fill:#000;fill-opacity:1;stroke:none;font-family:Arial;-inkscape-font-specification:Arial" id="text4935" x="75" y="86" xml:space="preserve"><tspan id="tspan4937" x="75" y="86">7</tspan></text></g><g id="g4939" transform="translate(540,185)"><path id="path4941" d="m 100,75 a 25,25 0 1 1 -50,0 25,25 0 1 1 50,0 z" style="fill:none;stroke:#000;stroke-width:3;stroke-linecap:round;stroke-linejoin:round;stroke-miterlimit:4;stroke-opacity:1;stroke-dasharray:none;stroke-dashoffset:0"/><text id="text4943" x="75" y="86" xml:space="preserve" style="font-size:32px;font-style:normal;font-variant:normal;font-weight:400;font-stretch:normal;text-align:center;line-height:120.00000477%;letter-spacing:0;word-spacing:0;writing-mode:lr-tb;text-anchor:middle;fill:#000;fill-opacity:1;stroke:none;font-family:Arial;-inkscape-font-specification:Arial"><tspan id="tspan4945" x="75" y="86">6</tspan></text></g><g id="g4947" transform="translate(610,185)"><path id="path4949" d="m 100,75 a 25,25 0 1 1 -50,0 25,25 0 1 1 50,0 z" style="fill:none;stroke:#000;stroke-width:3;stroke-linecap:round;stroke-linejoin:round;stroke-miterlimit:4;stroke-opacity:1;stroke-dasharray:none;stroke-dashoffset:0"/><text id="text4951" x="75" y="86" xml:space="preserve" style="font-size:32px;font-style:normal;font-variant:normal;font-weight:400;font-stretch:normal;text-align:center;line-height:120.00000477%;letter-spacing:0;word-spacing:0;writing-mode:lr-tb;text-anchor:middle;fill:#000;fill-opacity:1;stroke:none;font-family:Arial;-inkscape-font-specification:Arial"><tspan id="tspan4953" x="75" y="86">5</tspan></text></g><g id="g4955" transform="translate(680,185)"><path style="fill:none;stroke:#000;stroke-width:3;stroke-linecap:round;stroke-linejoin:round;stroke-miterlimit:4;stroke-opacity:1;stroke-dasharray:none;stroke-dashoffset:0" id="path4957" d="m 100,75 a 25,25 0 1 1 -50,0 25,25 0 1 1 50,0 z"/><text style="font-size:32px;font-style:normal;font-variant:normal;font-weight:400;font-stretch:normal;text-align:center;line-height:120.00000477%;letter-spacing:0;word-spacing:0;writing-mode:lr-tb;text-anchor:middle;fill:#000;fill-opacity:1;stroke:none;font-family:Arial;-inkscape-font-specification:Arial" id="text4959" x="75" y="86" xml:space="preserve"><tspan id="tspan4961" x="75" y="86">8</tspan></text></g><g id="g4979" transform="translate(605,335)"><path style="fill:none;stroke:#000;stroke-width:3;stroke-linecap:round;stroke-linejoin:round;stroke-miterlimit:4;stroke-opacity:1;stroke-dasharray:none;stroke-dashoffset:0" id="path4981" d="m 100,75 a 25,25 0 1 1 -50,0 25,25 0 1 1 50,0 z"/><text style="font-size:32px;font-style:normal;font-variant:normal;font-weight:400;font-stretch:normal;text-align:center;line-height:120.00000477%;letter-spacing:0;word-spacing:0;writing-mode:lr-tb;text-anchor:middle;fill:#000;fill-opacity:1;stroke:none;font-family:Arial;-inkscape-font-specification:Arial" id="text4983" x="75" y="86" xml:space="preserve"><tspan id="tspan4985" x="75" y="86">9*</tspan></text></g><path id="path4987" d="m 550,35 -50,0" style="fill:none;stroke:#000;stroke-width:2;stroke-linecap:round;stroke-linejoin:round;stroke-miterlimit:4;stroke-opacity:1;stroke-dasharray:6,6;stroke-dashoffset:0"/><path style="fill:none;stroke:#000;stroke-width:2;stroke-linecap:round;stroke-linejoin:round;stroke-miterlimit:4;stroke-opacity:1;stroke-dasharray:6,6;stroke-dashoffset:0" id="path4989" d="M 566,60 545,85"/><path id="path4991" d="m 617,60 -2,25" style="fill:none;stroke:#000;stroke-width:2;stroke-linecap:round;stroke-linejoin:round;stroke-miterlimit:4;stroke-opacity:1;stroke-dasharray:6,6;stroke-dashoffset:0"/><path style="fill:none;stroke:#000;stroke-width:2;stroke-linecap:round;stroke-linejoin:round;stroke-miterlimit:4;stroke-opacity:1;stroke-dasharray:6,6;stroke-dashoffset:0" id="path4993" d="m 639,60 46,25"/><path id="path4995" d="m 475,210 0,25" style="fill:none;stroke:#000;stroke-width:2;stroke-linecap:round;stroke-linejoin:round;stroke-miterlimit:4;stroke-opacity:1;stroke-dasharray:6,6;stroke-dashoffset:0"/><path style="fill:none;stroke:#000;stroke-width:2;stroke-linecap:round;stroke-linejoin:round;stroke-miterlimit:4;stroke-opacity:1;stroke-dasharray:6,6;stroke-dashoffset:0" id="path4997" d="m 540,210 5,25"/><path id="path4999" d="m 549,206 58,30" style="fill:none;stroke:#000;stroke-width:2;stroke-linecap:round;stroke-linejoin:round;stroke-miterlimit:4;stroke-opacity:1;stroke-dasharray:6,6;stroke-dashoffset:0"/><path style="fill:none;stroke:#000;stroke-width:2;stroke-linecap:round;stroke-linejoin:round;stroke-miterlimit:4;stroke-opacity:1;stroke-dasharray:6,6;stroke-dashoffset:0" id="path5001" d="m 652,206 -27,30"/><path id="path5003" d="m 685,210 0,25" style="fill:none;stroke:#000;stroke-width:2;stroke-linecap:round;stroke-linejoin:round;stroke-miterlimit:4;stroke-opacity:1;stroke-dasharray:6,6;stroke-dashoffset:0"/><path style="fill:none;stroke:#000;stroke-width:2;stroke-linecap:round;stroke-linejoin:round;stroke-miterlimit:4;stroke-opacity:1;stroke-dasharray:6,6;stroke-dashoffset:0" id="path5005" d="m 739,210 16,25"/><path id="path5011" d="m 680,360 0,25" style="fill:none;stroke:#000;stroke-width:2;stroke-linecap:round;stroke-linejoin:round;stroke-miterlimit:4;stroke-opacity:1;stroke-dasharray:6,6;stroke-dashoffset:0"/><path id="path5013" d="m 475,60 0,97" style="fill:none;stroke:#000;stroke-width:2;stroke-linecap:butt;stroke-linejoin:miter;stroke-miterlimit:4;stroke-opacity:1;stroke-dasharray:none;marker-end:url(#Arrow2Mend)"/><path style="fill:none;stroke:#000;stroke-width:2;stroke-linecap:butt;stroke-linejoin:miter;stroke-miterlimit:4;stroke-opacity:1;stroke-dasharray:none;marker-end:url(#Arrow2Mend)" id="path5015" d="m 630,130 22,31"/><path id="path5017" d="m 615,285 0,21" style="fill:none;stroke:#000;stroke-width:2;stroke-linecap:butt;stroke-linejoin:miter;stroke-miterlimit:4;stroke-opacity:1;stroke-dasharray:none;marker-end:url(#Arrow2Mend)"/><path style="fill:none;stroke:#000;stroke-width:2;stroke-linecap:butt;stroke-linejoin:miter;stroke-miterlimit:4;stroke-opacity:1;stroke-dasharray:none;marker-end:url(#Arrow2Mend)" id="path5019" d="m 737,278 -36,34"/><path id="path5023" d="m 493,53 35,36" style="fill:none;stroke:#000;stroke-width:1px;stroke-linecap:butt;stroke-linejoin:miter;stroke-opacity:1;marker-end:url(#Arrow2Mend)"/><path style="fill:none;stroke:#000;stroke-width:1px;stroke-linecap:butt;stroke-linejoin:miter;stroke-opacity:1;marker-end:url(#Arrow2Mend)" id="path5025" d="m 570,110 17,0"/><path id="path5027" d="m 565,126 c 35.7174,27.84064 67.98009,21.13424 99,2" style="fill:none;stroke:#000;stroke-width:1px;stroke-linecap:butt;stroke-linejoin:miter;stroke-opacity:1;marker-end:url(#Arrow2Mend)"/><path id="path5029" d="m 640,110 17,0" style="fill:none;stroke:#000;stroke-width:1px;stroke-linecap:butt;stroke-linejoin:miter;stroke-opacity:1;marker-end:url(#Arrow2Mend)"/><path style="fill:none;stroke:#000;stroke-width:1px;stroke-linecap:butt;stroke-linejoin:miter;stroke-opacity:1;marker-end:url(#Arrow2Mend)" id="path5031" d="m 464,58 c -34,132 -23.29523,162.55965 -8,181"/><path style="fill:none;stroke:#000;stroke-width:1px;stroke-linecap:butt;stroke-linejoin:miter;stroke-opacity:1;marker-end:url(#Arrow2Mend)" id="path5033" d="m 500,260 17,0"/><path id="path5035" d="m 570,260 17,0" style="fill:none;stroke:#000;stroke-width:1px;stroke-linecap:butt;stroke-linejoin:miter;stroke-opacity:1;marker-end:url(#Arrow2Mend)"/><path style="fill:none;stroke:#000;stroke-width:1px;stroke-linecap:butt;stroke-linejoin:miter;stroke-opacity:1;marker-end:url(#Arrow2Mend)" id="path5037" d="m 560,240 c 16.02047,-39.48206 59.72218,-75.1894 110,-110"/><path style="fill:none;stroke:#000;stroke-width:1px;stroke-linecap:butt;stroke-linejoin:miter;stroke-opacity:1;marker-end:url(#Arrow2Mend)" id="path5039" d="m 660,260 -17,0"/><path id="path5041" d="m 710,260 17,0" style="fill:none;stroke:#000;stroke-width:1px;stroke-linecap:butt;stroke-linejoin:miter;stroke-opacity:1;marker-end:url(#Arrow2Mend)"/><path id="path5043" d="m 615,135 c 2.73581,54.06364 24.04613,85.4251 55,105" style="fill:none;stroke:#000;stroke-width:1px;stroke-linecap:butt;stroke-linejoin:miter;stroke-opacity:1;marker-end:url(#Arrow2Mend)"/><path id="path5045" d="m 639,274 c 29.71146,22.01607 55.20143,25.48206 92,0" style="fill:none;stroke:#000;stroke-width:1px;stroke-linecap:butt;stroke-linejoin:miter;stroke-opacity:1;marker-start:url(#Arrow2Mstart);marker-end:url(#Arrow2Mend)"/><path id="path5047" d="m 600,280 c -23.82723,36 -30,90 60,110" style="fill:none;stroke:#000;stroke-width:1px;stroke-linecap:butt;stroke-linejoin:miter;stroke-opacity:1;marker-end:url(#Arrow2Mend)"/><path style="fill:none;stroke:#000;stroke-width:1px;stroke-linecap:butt;stroke-linejoin:miter;stroke-opacity:1;marker-end:url(#Arrow2Mend)" id="path5049" d="m 755,285 c -15,55 -15,65 -55,105"/><g id="g5061" transform="translate(380,350)"><rect id="rect5063" width="180" height="80" x="10" y="50" rx="10" ry="10" style="fill:none;stroke:#000;stroke-width:2.99999976;stroke-miterlimit:4;stroke-opacity:1;stroke-dasharray:none"/><text id="text5065" x="100" y="80" xml:space="preserve" style="font-size:18px;font-style:normal;font-variant:normal;font-weight:900;font-stretch:normal;text-align:center;line-height:120.00000477%;letter-spacing:0;word-spacing:0;writing-mode:lr-tb;text-anchor:middle;fill:#000;fill-opacity:1;stroke:none;font-family:Arial Black;-inkscape-font-specification:'Arial Black, Heavy'"><tspan id="tspan5067" x="100" y="80">Update Chunk 1</tspan></text><text style="font-size:16px;font-style:normal;font-variant:normal;font-weight:400;font-stretch:normal;text-align:center;line-height:120%;letter-spacing:0;word-spacing:0;writing-mode:lr;text-anchor:middle;fill:#000;fill-opacity:1;stroke:none;font-family:Arial;-inkscape-font-specification:Arial" id="text5069" x="100" y="110" xml:space="preserve"><tspan id="tspan5071" x="100" y="110">4: f() {...}</tspan></text></g><g id="g5083" transform="translate(380,450)"><rect style="fill:none;stroke:#000;stroke-width:2.99999976;stroke-miterlimit:4;stroke-opacity:1;stroke-dasharray:none" id="rect5085" width="180" height="80" x="10" y="50" rx="10" ry="10"/><text style="font-size:18px;font-style:normal;font-variant:normal;font-weight:900;font-stretch:normal;text-align:center;line-height:120.00000477%;letter-spacing:0;word-spacing:0;writing-mode:lr-tb;text-anchor:middle;fill:#000;fill-opacity:1;stroke:none;font-family:Arial Black;-inkscape-font-specification:'Arial Black, Heavy'" id="text5087" x="100" y="80" xml:space="preserve"><tspan id="tspan5089" x="100" y="80">Update Chunk 4</tspan></text><text id="text5091" x="100" y="110" xml:space="preserve" style="font-size:16px;font-style:normal;font-variant:normal;font-weight:400;font-stretch:normal;text-align:center;line-height:120%;letter-spacing:0;word-spacing:0;writing-mode:lr;text-anchor:middle;fill:#000;fill-opacity:1;stroke:none;font-family:Arial;-inkscape-font-specification:Arial"><tspan id="tspan5093" x="100" y="110">10: false, 11: false</tspan></text></g><g id="g5095" transform="translate(380,250)"><rect style="fill:none;stroke:#000;stroke-width:2.99999976;stroke-miterlimit:4;stroke-opacity:1;stroke-dasharray:none" id="rect5097" width="160" height="80" x="10" y="50" rx="10" ry="10"/><text style="font-size:18px;font-style:normal;font-variant:normal;font-weight:900;font-stretch:normal;text-align:center;line-height:120.00000477%;letter-spacing:0;word-spacing:0;writing-mode:lr-tb;text-anchor:middle;fill:#000;fill-opacity:1;stroke:none;font-family:Arial Black;-inkscape-font-specification:'Arial Black, Heavy'" id="text5099" x="90" y="80" xml:space="preserve"><tspan id="tspan5101" x="90" y="80">Update Main 0</tspan></text><text id="text5103" x="90" y="110" xml:space="preserve" style="font-size:16px;font-style:normal;font-variant:normal;font-weight:400;font-stretch:normal;text-align:center;line-height:120.00000477%;letter-spacing:0;word-spacing:0;writing-mode:lr-tb;text-anchor:middle;fill:#000;fill-opacity:1;stroke:none;font-family:Arial;-inkscape-font-specification:Arial"><tspan id="tspan5105" x="90" y="110">chunks: [1, 3, 4]</tspan></text></g><path style="fill:none;stroke:#000;stroke-width:5;stroke-linecap:butt;stroke-linejoin:miter;stroke-miterlimit:4;stroke-opacity:1;stroke-dasharray:5,5;stroke-dashoffset:0" id="path5107" d="m 370,0 0,600"/><path id="path5109" d="m 0,450 370,0" style="fill:none;stroke:#000;stroke-width:5;stroke-linecap:butt;stroke-linejoin:miter;stroke-miterlimit:4;stroke-opacity:1;stroke-dasharray:5,5;stroke-dashoffset:0"/><g id="g5111" transform="translate(-20,480)"><rect style="fill:none;stroke:#000;stroke-width:3;stroke-miterlimit:4;stroke-opacity:1;stroke-dasharray:none" id="rect5113" width="120" height="50" x="40" y="50" rx="10" ry="10"/><text style="font-size:20px;font-style:normal;font-variant:normal;font-weight:900;font-stretch:normal;text-align:center;line-height:120.00000477%;letter-spacing:0;word-spacing:0;writing-mode:lr-tb;text-anchor:middle;fill:#000;fill-opacity:1;stroke:none;font-family:Arial Black;-inkscape-font-specification:'Arial Black, Heavy'" id="text5115" x="100" y="80" xml:space="preserve"><tspan id="tspan5117" x="100" y="80">Chunk Y</tspan></text></g><g id="g5119" transform="translate(-40,415)"><path style="fill:none;stroke:#000;stroke-width:3;stroke-linecap:round;stroke-linejoin:round;stroke-miterlimit:4;stroke-opacity:1;stroke-dasharray:none;stroke-dashoffset:0" id="path5121" d="m 100,75 a 25,25 0 1 1 -50,0 25,25 0 1 1 50,0 z"/><text style="font-size:32px;font-style:normal;font-variant:normal;font-weight:400;font-stretch:normal;text-align:center;line-height:120.00000477%;letter-spacing:0;word-spacing:0;writing-mode:lr-tb;text-anchor:middle;fill:#000;fill-opacity:1;stroke:none;font-family:Arial;-inkscape-font-specification:Arial" id="text5123" x="75" y="86" xml:space="preserve"><tspan id="tspan5125" x="75" y="86">X</tspan></text></g><g id="g5127" transform="translate(100,415)"><path id="path5129" d="m 100,75 a 25,25 0 1 1 -50,0 25,25 0 1 1 50,0 z" style="fill:none;stroke:#000;stroke-width:3;stroke-linecap:round;stroke-linejoin:round;stroke-miterlimit:4;stroke-opacity:1;stroke-dasharray:none;stroke-dashoffset:0"/><text id="text5131" x="75" y="86" xml:space="preserve" style="font-size:32px;font-style:normal;font-variant:normal;font-weight:400;font-stretch:normal;text-align:center;line-height:120.00000477%;letter-spacing:0;word-spacing:0;writing-mode:lr-tb;text-anchor:middle;fill:#000;fill-opacity:1;stroke:none;font-family:Arial;-inkscape-font-specification:Arial"><tspan id="tspan5133" x="75" y="86">X*</tspan></text></g><text style="font-size:20px;font-style:normal;font-variant:normal;font-weight:400;font-stretch:normal;text-align:start;line-height:120%;letter-spacing:0;word-spacing:0;writing-mode:lr;text-anchor:start;fill:#000;fill-opacity:1;stroke:none;font-family:Arial;-inkscape-font-specification:Arial" id="text5135" x="70" y="495" xml:space="preserve"><tspan id="tspan5137" x="70" y="495">module</tspan></text><text id="text5139" x="210" y="495" xml:space="preserve" style="font-size:20px;font-style:normal;font-variant:normal;font-weight:400;font-stretch:normal;text-align:start;line-height:120.00000477%;letter-spacing:0;word-spacing:0;writing-mode:lr-tb;text-anchor:start;fill:#000;fill-opacity:1;stroke:none;font-family:Arial;-inkscape-font-specification:Arial"><tspan id="tspan5141" x="210" y="495">updated module</tspan></text><g id="g5143" transform="translate(150,480)"><rect id="rect5145" width="180" height="50" x="10" y="50" rx="10" ry="10" style="fill:none;stroke:#000;stroke-width:2.99999976;stroke-miterlimit:4;stroke-opacity:1;stroke-dasharray:none"/><text id="text5147" x="100" y="80" xml:space="preserve" style="font-size:18px;font-style:normal;font-variant:normal;font-weight:900;font-stretch:normal;text-align:center;line-height:120%;letter-spacing:0;word-spacing:0;writing-mode:lr;text-anchor:middle;fill:#000;fill-opacity:1;stroke:none;font-family:Arial Black;-inkscape-font-specification:'Arial Black, Heavy'"><tspan id="tspan5149" x="100" y="80">Update Chunk Y</tspan></text></g><g id="g5151" transform="translate(675,334)"><path id="path5153" d="m 100,75 a 25,25 0 1 1 -50,0 25,25 0 1 1 50,0 z" style="fill:none;stroke:#000;stroke-width:3;stroke-linecap:round;stroke-linejoin:round;stroke-miterlimit:4;stroke-opacity:1;stroke-dasharray:none;stroke-dashoffset:0"/><text id="text5155" x="75" y="86" xml:space="preserve" style="font-size:32px;font-style:normal;font-variant:normal;font-weight:400;font-stretch:normal;text-align:center;line-height:120.00000477%;letter-spacing:0;word-spacing:0;writing-mode:lr-tb;text-anchor:middle;fill:#000;fill-opacity:1;stroke:none;font-family:Arial;-inkscape-font-specification:Arial"><tspan id="tspan5157" x="75" y="86">12</tspan></text></g><path style="fill:none;stroke:#000;stroke-width:1px;stroke-linecap:butt;stroke-linejoin:miter;stroke-opacity:1;marker-end:url(#Arrow2Mend)" id="path5159" d="m 705,410 17,0"/><g id="g5161" transform="translate(580,450)"><rect id="rect5163" width="180" height="80" x="10" y="50" rx="10" ry="10" style="fill:none;stroke:#000;stroke-width:2.99999976;stroke-miterlimit:4;stroke-opacity:1;stroke-dasharray:none"/><text id="text5165" x="100" y="80" xml:space="preserve" style="font-size:18px;font-style:normal;font-variant:normal;font-weight:900;font-stretch:normal;text-align:center;line-height:120.00000477%;letter-spacing:0;word-spacing:0;writing-mode:lr-tb;text-anchor:middle;fill:#000;fill-opacity:1;stroke:none;font-family:Arial Black;-inkscape-font-specification:'Arial Black, Heavy'"><tspan id="tspan5167" x="100" y="80">Update Chunk 3</tspan></text><text style="font-size:16px;font-style:normal;font-variant:normal;font-weight:400;font-stretch:normal;text-align:center;line-height:120.00000477%;letter-spacing:0;word-spacing:0;writing-mode:lr-tb;text-anchor:middle;fill:#000;fill-opacity:1;stroke:none;font-family:Arial;-inkscape-font-specification:Arial" id="text5169" x="100" y="110" xml:space="preserve"><tspan id="tspan5171" x="100" y="110">9: f() {...}, 12: f() {...}</tspan></text></g></g></svg>